<?xml version="1.0" encoding="iso-8859-1"?>
<!-- Generator: Adobe Illustrator 19.0.1, SVG Export Plug-In . SVG Version: 6.00 Build 0)  -->
<svg version="1.1" xmlns="http://www.w3.org/2000/svg" xmlns:xlink="http://www.w3.org/1999/xlink" x="0px" y="0px"
	 viewBox="0 0 128 128" style="enable-background:new 0 0 128 128;" xml:space="preserve">
<g id="_x31_6">
	<path style="fill:#0000FF;" d="M109.525,61.257l-2.333,4.82l3.285,1.58h-18.14c-2.346-9.291-4.84-17.565-10.887-17.565
		c-6.047,0-8.54,8.274-10.887,17.565H56.74V32.499l2.025,3.896l4.76-2.463l-9.546-18.382l-8.889,18.449l4.827,2.316l1.461-3.039
		v19.453c-1.368-1.66-3.017-2.638-5.095-2.638c-6.047,0-8.54,8.274-10.887,17.565H21.988c-2.346-9.291-4.827-17.565-10.873-17.565
		v5.355c1.864,0,3.942,6.922,5.336,12.21H0v5.355h17.805c2.346,9.291,4.84,17.552,10.887,17.552s8.54-8.261,10.887-17.552h11.798
		v39.348h5.363V84.686c1.716,3.548,3.915,5.877,7.119,5.877c6.047,0,8.54-8.261,10.887-17.552h13.407
		c2.346,9.291,4.84,17.552,10.887,17.552v-5.355c-1.89,0-3.928-6.761-5.336-12.197h17.081l-3.66,1.901l2.467,4.753L128,70.133
		L109.525,61.257z M28.692,85.208c-1.877,0-3.955-6.895-5.336-12.197h10.672C32.647,78.313,30.569,85.208,28.692,85.208z
		 M40.933,67.656c1.394-5.288,3.472-12.21,5.35-12.21c1.756,0,3.714,6.159,5.095,11.3c0.08,0.308,0.161,0.616,0.241,0.91H40.933z
		 M63.859,85.208c-1.877,0-3.955-6.895-5.336-12.197h10.672C67.774,78.447,65.75,85.208,63.859,85.208z M76.1,67.656
		c1.421-5.422,3.459-12.21,5.35-12.21c1.89,0,3.928,6.788,5.35,12.21H76.1z"/>
</g>
<g id="Layer_1">
</g>
</svg>
